# xmcd CD database file
#
# Track frame offsets:
#	150
#	17781
#	37753
#	49425
#	63944
#	80669
#	97452
#	130306
#	166552
#	184793
#
# Disc length: 2815 seconds
#
# Revision: 3
# Processed by: cddbd v1.5.2PL0 Copyright (c) Steve Scherf et al.
# Submitted via: CDex 1.51
#
DISCID=820afd0a
DTITLE=James Cotton - It Was A Very Good Year
DYEAR=2000
DGENRE=Blues
TTITLE0=It Was A Very Good Year
TTITLE1=Mystery Train
TTITLE2=She's My Baby
TTITLE3=One More Mile
TTITLE4=How Sweet It Is (To Be Loved By You)
TTITLE5=I Can't Quit You Baby
TTITLE6=Sweet Sixteen
TTITLE7=Midnight Creeper
TTITLE8=Hoochie Coochie Man
TTITLE9=You're So Fine
EXTD=YEAR: 2000
EXTT0=
EXTT1=
EXTT2=
EXTT3=
EXTT4=
EXTT5=
EXTT6=
EXTT7=
EXTT8=
EXTT9=
PLAYORDER=
